<svg width="44" height="44" viewBox="0 0 44 44" fill="none" xmlns="http://www.w3.org/2000/svg">
<circle cx="22" cy="22" r="22" fill="#F2F8F7"/>
<path d="M25.0308 19.342C25.0308 19.135 24.8628 18.968 24.6558 18.968C24.4488 18.969 24.2808 19.137 24.2808 19.344C24.2808 19.551 24.4488 19.719 24.6558 19.718C24.8628 19.718 25.0308 19.55 25.0308 19.343" stroke="#797C7B" stroke-width="1.5" stroke-linecap="round" stroke-linejoin="round"/>
<path fill-rule="evenodd" clip-rule="evenodd" d="M22.499 24.785L21.469 25.817H19.637V27.286H18.172V29.122L16.798 30.5H13.5V27.195L19.223 21.459C18.417 19.365 18.849 16.903 20.534 15.214C22.814 12.929 26.511 12.929 28.791 15.214C31.071 17.499 31.071 21.204 28.791 23.49C27.089 25.194 24.601 25.624 22.499 24.785Z" stroke="#797C7B" stroke-width="1.5" stroke-linecap="round" stroke-linejoin="round"/>
</svg>
