<svg width="48" height="48" viewBox="0 0 48 48" fill="none" xmlns="http://www.w3.org/2000/svg">
<g filter="url(#filter0_b_1_3327)">
<circle cx="24" cy="24" r="24" fill="white" fill-opacity="0.2"/>
</g>
<path fill-rule="evenodd" clip-rule="evenodd" d="M24 27V27C22.343 27 21 25.657 21 24V18C21 16.343 22.343 15 24 15V15C25.657 15 27 16.343 27 18V24C27 25.657 25.657 27 24 27Z" stroke="white" stroke-width="1.5" stroke-linecap="round" stroke-linejoin="round"/>
<path d="M30 22V24C30 27.314 27.314 30 24 30V30C20.686 30 18 27.314 18 24V22" stroke="white" stroke-width="1.5" stroke-linecap="round" stroke-linejoin="round"/>
<path d="M24 30V33" stroke="white" stroke-width="1.5" stroke-linecap="round" stroke-linejoin="round"/>
<path d="M19.8199 33H28.1799" stroke="white" stroke-width="1.5" stroke-linecap="round" stroke-linejoin="round"/>
<defs>
<filter id="filter0_b_1_3327" x="-30" y="-30" width="108" height="108" filterUnits="userSpaceOnUse" color-interpolation-filters="sRGB">
<feFlood flood-opacity="0" result="BackgroundImageFix"/>
<feGaussianBlur in="BackgroundImageFix" stdDeviation="15"/>
<feComposite in2="SourceAlpha" operator="in" result="effect1_backgroundBlur_1_3327"/>
<feBlend mode="normal" in="SourceGraphic" in2="effect1_backgroundBlur_1_3327" result="shape"/>
</filter>
</defs>
</svg>
