<svg width="44" height="44" viewBox="0 0 44 44" fill="none" xmlns="http://www.w3.org/2000/svg">
<circle cx="22" cy="22" r="22" fill="#F2F8F7"/>
<path d="M32 24L29.061 21.8839C27.5338 20.7843 25.4467 20.898 24.0479 22.1569L19.9521 25.8431C18.5533 27.102 16.4662 27.2157 14.939 26.1161L12 24M16 32H28C30.2091 32 32 30.2091 32 28V16C32 13.7909 30.2091 12 28 12H16C13.7909 12 12 13.7909 12 16V28C12 30.2091 13.7909 32 16 32ZM21 18.5C21 19.8807 19.8807 21 18.5 21C17.1193 21 16 19.8807 16 18.5C16 17.1193 17.1193 16 18.5 16C19.8807 16 21 17.1193 21 18.5Z" stroke="#797C7B" stroke-width="1.5" stroke-linecap="round"/>
</svg>
