<svg width="44" height="44" viewBox="0 0 44 44" fill="none" xmlns="http://www.w3.org/2000/svg">
<circle cx="22" cy="22" r="22" fill="#051D13"/>
<path fill-rule="evenodd" clip-rule="evenodd" d="M30.5031 26.7623C31.2939 25.354 31.75 23.7312 31.75 22C31.75 16.6147 27.3853 12.25 22 12.25C16.6147 12.25 12.25 16.6147 12.25 22C12.25 27.3853 16.6147 31.75 22 31.75C23.7312 31.75 25.354 31.2939 26.7623 30.5031L31.75 31.75L30.5031 26.7623Z" stroke="white" stroke-width="1.5" stroke-linecap="round" stroke-linejoin="round"/>
<path d="M21.808 22.3499C21.9142 22.2438 22.0853 22.2438 22.1915 22.3499C22.2977 22.4561 22.2977 22.6273 22.1915 22.7334C22.0853 22.8396 21.9142 22.8396 21.808 22.7334C21.7029 22.6273 21.7029 22.4561 21.808 22.3499" stroke="white" stroke-width="1.5" stroke-linecap="round" stroke-linejoin="round"/>
<path d="M17.475 22.3499C17.5812 22.2438 17.7523 22.2438 17.8585 22.3499C17.9647 22.4561 17.9647 22.6273 17.8585 22.7334C17.7523 22.8396 17.5812 22.8396 17.475 22.7334C17.3699 22.6273 17.3699 22.4561 17.475 22.3499" stroke="white" stroke-width="1.5" stroke-linecap="round" stroke-linejoin="round"/>
<path d="M26.1415 22.3499C26.2477 22.2438 26.4188 22.2438 26.525 22.3499C26.6312 22.4561 26.6312 22.6273 26.525 22.7334C26.4188 22.8396 26.2477 22.8396 26.1415 22.7334C26.0364 22.6273 26.0364 22.4561 26.1415 22.3499" stroke="white" stroke-width="1.5" stroke-linecap="round" stroke-linejoin="round"/>
</svg>
