<svg width="44" height="44" viewBox="0 0 44 44" fill="none" xmlns="http://www.w3.org/2000/svg">
<circle cx="22" cy="22" r="22" fill="#F2F8F7"/>
<path d="M17 16V16.75C17.2508 16.75 17.4849 16.6247 17.624 16.416L17 16ZM18.4063 13.8906L17.7822 13.4746V13.4746L18.4063 13.8906ZM25.5937 13.8906L26.2178 13.4746L25.5937 13.8906ZM27 16L26.376 16.416C26.5151 16.6247 26.7492 16.75 27 16.75V16ZM24.25 23.5C24.25 24.7426 23.2426 25.75 22 25.75V27.25C24.0711 27.25 25.75 25.5711 25.75 23.5H24.25ZM22 25.75C20.7574 25.75 19.75 24.7426 19.75 23.5H18.25C18.25 25.5711 19.9289 27.25 22 27.25V25.75ZM19.75 23.5C19.75 22.2574 20.7574 21.25 22 21.25V19.75C19.9289 19.75 18.25 21.4289 18.25 23.5H19.75ZM22 21.25C23.2426 21.25 24.25 22.2574 24.25 23.5H25.75C25.75 21.4289 24.0711 19.75 22 19.75V21.25ZM17.624 16.416L19.0303 14.3066L17.7822 13.4746L16.376 15.584L17.624 16.416ZM20.0704 13.75H23.9296V12.25H20.0704V13.75ZM24.9697 14.3066L26.376 16.416L27.624 15.584L26.2178 13.4746L24.9697 14.3066ZM23.9296 13.75C24.3476 13.75 24.7379 13.9589 24.9697 14.3066L26.2178 13.4746C25.7077 12.7095 24.8491 12.25 23.9296 12.25V13.75ZM19.0303 14.3066C19.2621 13.9589 19.6524 13.75 20.0704 13.75V12.25C19.1509 12.25 18.2923 12.7095 17.7822 13.4746L19.0303 14.3066ZM31.25 20V27H32.75V20H31.25ZM28 30.25H16V31.75H28V30.25ZM12.75 27V20H11.25V27H12.75ZM16 30.25C14.2051 30.25 12.75 28.7949 12.75 27H11.25C11.25 29.6234 13.3766 31.75 16 31.75V30.25ZM31.25 27C31.25 28.7949 29.7949 30.25 28 30.25V31.75C30.6234 31.75 32.75 29.6234 32.75 27H31.25ZM28 16.75C29.7949 16.75 31.25 18.2051 31.25 20H32.75C32.75 17.3766 30.6234 15.25 28 15.25V16.75ZM16 15.25C13.3766 15.25 11.25 17.3766 11.25 20H12.75C12.75 18.2051 14.2051 16.75 16 16.75V15.25ZM16 16.75H17V15.25H16V16.75ZM28 15.25H27V16.75H28V15.25Z" fill="#797C7B"/>
<circle cx="22" cy="16" r="1" fill="#797C7B"/>
</svg>
