<svg width="48" height="48" viewBox="0 0 48 48" fill="none" xmlns="http://www.w3.org/2000/svg">
<circle cx="24" cy="24" r="24" fill="white"/>
<path d="M33 31V29.3541C33 28.5363 32.5021 27.8008 31.7428 27.4971L29.7086 26.6835C28.7429 26.2971 27.6422 26.7156 27.177 27.646L27 28C27 28 24.5 27.5 22.5 25.5C20.5 23.5 20 21 20 21L20.354 20.823C21.2844 20.3578 21.7029 19.2571 21.3165 18.2914L20.5029 16.2572C20.1992 15.4979 19.4637 15 18.6459 15H17C15.8954 15 15 15.8954 15 17C15 25.8366 22.1634 33 31 33C32.1046 33 33 32.1046 33 31Z" fill="#1CB536"/>
</svg>
