<svg width="44" height="44" viewBox="0 0 44 44" fill="none" xmlns="http://www.w3.org/2000/svg">
<circle cx="22" cy="22" r="22" fill="#F2F8F7"/>
<path fill-rule="evenodd" clip-rule="evenodd" d="M31 29.5C31 30.3284 30.3284 31 29.5 31L28.5 31C27.6716 31 27 30.3284 27 29.5L27 14.5C27 13.6716 27.6716 13 28.5 13L29.5 13C30.3284 13 31 13.6716 31 14.5L31 29.5Z" stroke="#797C7B" stroke-width="1.5" stroke-linecap="round" stroke-linejoin="round"/>
<path fill-rule="evenodd" clip-rule="evenodd" d="M24 29.5002C24 30.3286 23.3284 31.0002 22.5 31.0002L21.5 31.0002C20.6716 31.0002 20 30.3286 20 29.5002L20 20.1842C20 19.3558 20.6716 18.6842 21.5 18.6842L22.5 18.6842C23.3284 18.6842 24 19.3558 24 20.1842L24 29.5002Z" stroke="#797C7B" stroke-width="1.5" stroke-linecap="round" stroke-linejoin="round"/>
<path fill-rule="evenodd" clip-rule="evenodd" d="M17 29.5004C17 30.3288 16.3284 31.0004 15.5 31.0004L14.5 31.0004C13.6716 31.0004 13 30.3288 13 29.5004L13 25.8684C13 25.04 13.6716 24.3684 14.5 24.3684L15.5 24.3684C16.3284 24.3684 17 25.04 17 25.8684L17 29.5004Z" stroke="#797C7B" stroke-width="1.5" stroke-linecap="round" stroke-linejoin="round"/>
</svg>
