<svg width="44" height="44" viewBox="0 0 44 44" fill="none" xmlns="http://www.w3.org/2000/svg">
<circle cx="22" cy="22" r="22" fill="#F2F8F7"/>
<path d="M23 12V16C23 18.2091 24.7909 20 27 20L31 20M13 16L13 28C13 30.2091 14.7909 32 17 32H27C29.2091 32 31 30.2091 31 28V21.6569C31 20.596 30.5786 19.5786 29.8284 18.8284L24.1716 13.1716C23.4214 12.4214 22.404 12 21.3431 12L17 12C14.7909 12 13 13.7909 13 16Z" stroke="#797C7B" stroke-width="1.5" stroke-linejoin="round"/>
<path d="M15.9023 23.6318H17.4873C17.8447 23.6318 18.1172 23.6592 18.3047 23.7139C18.5566 23.7881 18.7725 23.9199 18.9521 24.1094C19.1318 24.2988 19.2686 24.5312 19.3623 24.8066C19.4561 25.0801 19.5029 25.418 19.5029 25.8203C19.5029 26.1738 19.459 26.4785 19.3711 26.7344C19.2637 27.0469 19.1104 27.2998 18.9111 27.4932C18.7607 27.6396 18.5576 27.7539 18.3018 27.8359C18.1104 27.8965 17.8545 27.9268 17.5342 27.9268H15.9023V23.6318ZM16.7695 24.3584V27.2031H17.417C17.6592 27.2031 17.834 27.1895 17.9414 27.1621C18.082 27.127 18.1982 27.0674 18.29 26.9834C18.3838 26.8994 18.46 26.7617 18.5186 26.5703C18.5771 26.377 18.6064 26.1143 18.6064 25.7822C18.6064 25.4502 18.5771 25.1953 18.5186 25.0176C18.46 24.8398 18.3779 24.7012 18.2725 24.6016C18.167 24.502 18.0332 24.4346 17.8711 24.3994C17.75 24.3721 17.5127 24.3584 17.1592 24.3584H16.7695Z" fill="#797C7B"/>
<path d="M20.0654 25.8057C20.0654 25.3682 20.1309 25.001 20.2617 24.7041C20.3594 24.4854 20.4922 24.2891 20.6602 24.1152C20.8301 23.9414 21.0156 23.8125 21.2168 23.7285C21.4844 23.6152 21.793 23.5586 22.1426 23.5586C22.7754 23.5586 23.2812 23.7549 23.6602 24.1475C24.041 24.54 24.2314 25.0859 24.2314 25.7852C24.2314 26.4785 24.043 27.0215 23.666 27.4141C23.2891 27.8047 22.7852 28 22.1543 28C21.5156 28 21.0078 27.8057 20.6309 27.417C20.2539 27.0264 20.0654 26.4893 20.0654 25.8057ZM20.959 25.7764C20.959 26.2627 21.0713 26.6318 21.2959 26.8838C21.5205 27.1338 21.8057 27.2588 22.1514 27.2588C22.4971 27.2588 22.7803 27.1348 23.001 26.8867C23.2236 26.6367 23.335 26.2627 23.335 25.7646C23.335 25.2725 23.2266 24.9053 23.0098 24.6631C22.7949 24.4209 22.5088 24.2998 22.1514 24.2998C21.7939 24.2998 21.5059 24.4229 21.2871 24.6689C21.0684 24.9131 20.959 25.2822 20.959 25.7764Z" fill="#797C7B"/>
<path d="M27.6592 26.3477L28.5 26.6143C28.3711 27.083 28.1562 27.4316 27.8555 27.6602C27.5566 27.8867 27.1768 28 26.7158 28C26.1455 28 25.6768 27.8057 25.3096 27.417C24.9424 27.0264 24.7588 26.4932 24.7588 25.8174C24.7588 25.1025 24.9434 24.5479 25.3125 24.1533C25.6816 23.7568 26.167 23.5586 26.7686 23.5586C27.2939 23.5586 27.7207 23.7139 28.0488 24.0244C28.2441 24.208 28.3906 24.4717 28.4883 24.8154L27.6299 25.0205C27.5791 24.7979 27.4727 24.6221 27.3105 24.4932C27.1504 24.3643 26.9551 24.2998 26.7246 24.2998C26.4062 24.2998 26.1475 24.4141 25.9482 24.6426C25.751 24.8711 25.6523 25.2412 25.6523 25.7529C25.6523 26.2959 25.75 26.6826 25.9453 26.9131C26.1406 27.1436 26.3945 27.2588 26.707 27.2588C26.9375 27.2588 27.1357 27.1855 27.3018 27.0391C27.4678 26.8926 27.5869 26.6621 27.6592 26.3477Z" fill="#797C7B"/>
</svg>
