<svg width="44" height="44" viewBox="0 0 44 44" fill="none" xmlns="http://www.w3.org/2000/svg">
<circle cx="22" cy="22" r="22" fill="#F2F8F7"/>
<ellipse cx="20" cy="27.5" rx="7" ry="3.5" stroke="#797C7B" stroke-width="1.5" stroke-linejoin="round"/>
<circle cx="20" cy="17" r="4" stroke="#797C7B" stroke-width="1.5" stroke-linejoin="round"/>
<path fill-rule="evenodd" clip-rule="evenodd" d="M25.0448 20.2496C24.7228 20.7485 24.3288 21.1965 23.8774 21.5791C24.2319 21.6901 24.609 21.75 25.0001 21.75C27.0712 21.75 28.7501 20.0711 28.7501 18C28.7501 16.0442 27.2529 14.4381 25.3421 14.2654C25.6083 14.7843 25.8011 15.3472 25.9068 15.9401C26.6979 16.2889 27.2501 17.0799 27.2501 18C27.2501 19.2277 26.2668 20.2257 25.0448 20.2496Z" fill="#797C7B"/>
<path fill-rule="evenodd" clip-rule="evenodd" d="M28.9997 27.5563C28.9896 28.1705 28.8148 28.7606 28.5009 29.3109C28.8693 29.2095 29.2144 29.0921 29.5312 28.9601C30.1284 28.7113 30.6606 28.3959 31.055 28.0074C31.452 27.6163 31.7501 27.1065 31.7501 26.5C31.7501 25.8936 31.452 25.3837 31.055 24.9926C30.6606 24.6041 30.1284 24.2887 29.5312 24.0399C28.5086 23.6138 27.1907 23.3394 25.7495 23.2684C26.7517 23.7775 27.5702 24.417 28.1351 25.1443C28.4329 25.2275 28.7072 25.3216 28.9543 25.4246C29.443 25.6282 29.7894 25.8515 30.0023 26.0612C30.2125 26.2683 30.2501 26.4161 30.2501 26.5C30.2501 26.5839 30.2125 26.7318 30.0023 26.9388C29.7961 27.142 29.4645 27.3579 28.9997 27.5563Z" fill="#797C7B"/>
</svg>
