<svg width="26" height="26" viewBox="0 0 26 26" fill="none" xmlns="http://www.w3.org/2000/svg">
<path fill-rule="evenodd" clip-rule="evenodd" d="M4.49692 17.7623C3.70608 16.354 3.25 14.7312 3.25 13C3.25 7.61475 7.61475 3.25 13 3.25C18.3853 3.25 22.75 7.61475 22.75 13C22.75 18.3853 18.3853 22.75 13 22.75C11.2688 22.75 9.646 22.2939 8.23767 21.5031L3.25 22.75L4.49692 17.7623Z" fill="white" stroke="white" stroke-width="1.5" stroke-linecap="round" stroke-linejoin="round"/>
<path d="M12.8083 13.3499C12.9144 13.2438 13.0856 13.2438 13.1918 13.3499C13.2979 13.4561 13.2979 13.6273 13.1918 13.7334C13.0856 13.8396 12.9144 13.8396 12.8083 13.7334C12.7032 13.6273 12.7032 13.4561 12.8083 13.3499" stroke="#24786D" stroke-width="1.5" stroke-linecap="round" stroke-linejoin="round"/>
<path d="M8.47488 13.3499C8.58104 13.2438 8.75221 13.2438 8.85838 13.3499C8.96454 13.4561 8.96454 13.6273 8.85838 13.7334C8.75221 13.8396 8.58104 13.8396 8.47488 13.7334C8.36979 13.6273 8.36979 13.4561 8.47488 13.3499" stroke="#24786D" stroke-width="1.5" stroke-linecap="round" stroke-linejoin="round"/>
<path d="M17.1416 13.3499C17.2478 13.2438 17.419 13.2438 17.5251 13.3499C17.6313 13.4561 17.6313 13.6273 17.5251 13.7334C17.419 13.8396 17.2478 13.8396 17.1416 13.7334C17.0365 13.6273 17.0365 13.4561 17.1416 13.3499" stroke="#24786D" stroke-width="1.5" stroke-linecap="round" stroke-linejoin="round"/>
</svg>
