<svg width="48" height="48" viewBox="0 0 48 48" fill="none" xmlns="http://www.w3.org/2000/svg">
<g filter="url(#filter0_b_1_3337)">
<circle cx="24" cy="24" r="24" fill="white" fill-opacity="0.2"/>
</g>
<path fill-rule="evenodd" clip-rule="evenodd" d="M17.875 20.625H15.5C14.948 20.625 14.5 21.073 14.5 21.625V26.375C14.5 26.927 14.948 27.375 15.5 27.375H17.875L21.854 30.746C22.504 31.297 23.5 30.835 23.5 29.983V18.017C23.5 17.165 22.503 16.703 21.854 17.254L17.875 20.625Z" stroke="white" stroke-width="1.5" stroke-linecap="round" stroke-linejoin="round"/>
<path d="M27.537 27.978C28.699 27.256 29.5 25.754 29.5 24.005C29.5 22.256 28.699 20.753 27.537 20.022" stroke="white" stroke-width="1.5" stroke-linecap="round" stroke-linejoin="round"/>
<path d="M30.505 31.065C32.313 29.51 33.5 26.93 33.5 24.003C33.5 21.072 32.311 18.49 30.5 16.936" stroke="white" stroke-width="1.5" stroke-linecap="round" stroke-linejoin="round"/>
<defs>
<filter id="filter0_b_1_3337" x="-30" y="-30" width="108" height="108" filterUnits="userSpaceOnUse" color-interpolation-filters="sRGB">
<feFlood flood-opacity="0" result="BackgroundImageFix"/>
<feGaussianBlur in="BackgroundImageFix" stdDeviation="15"/>
<feComposite in2="SourceAlpha" operator="in" result="effect1_backgroundBlur_1_3337"/>
<feBlend mode="normal" in="SourceGraphic" in2="effect1_backgroundBlur_1_3337" result="shape"/>
</filter>
</defs>
</svg>
