<?xml version="1.0" encoding="utf-8"?>
<!-- Svg Vector Icons : http://www.onlinewebfonts.com/icon -->
<!DOCTYPE svg PUBLIC "-//W3C//DTD SVG 1.1//EN" "http://www.w3.org/Graphics/SVG/1.1/DTD/svg11.dtd">
<svg version="1.1" xmlns="http://www.w3.org/2000/svg" xmlns:xlink="http://www.w3.org/1999/xlink" x="0px" y="0px" viewBox="0 0 256 256" enable-background="new 0 0 256 256" xml:space="preserve">
<metadata> Svg Vector Icons : http://www.onlinewebfonts.com/icon </metadata>
<g><g><path stroke-width="2" fill-opacity="0" stroke="#000000"  d="M88.7,88.7c0,6.6-2.3,12.1-6.9,16.7c-4.6,4.6-10.2,6.9-16.7,6.9s-12.1-2.3-16.7-6.9c-4.6-4.6-6.9-10.2-6.9-16.7s2.3-12.1,6.9-16.7c4.6-4.6,10.2-6.9,16.7-6.9s12.1,2.3,16.7,6.9C86.4,76.5,88.7,82.1,88.7,88.7z M214.5,135.9v55.1H41.5v-23.6L80.8,128l19.7,19.7l62.9-62.9L214.5,135.9z M226.3,49.3H29.7c-1.1,0-2,0.4-2.8,1.2c-0.8,0.8-1.2,1.7-1.2,2.8v149.5c0,1.1,0.4,2,1.2,2.8c0.8,0.8,1.7,1.2,2.8,1.2h196.7c1.1,0,2-0.4,2.8-1.2c0.8-0.8,1.2-1.7,1.2-2.8V53.3c0-1.1-0.4-2-1.2-2.8C228.3,49.7,227.4,49.3,226.3,49.3z M246,53.3v149.5c0,5.4-1.9,10-5.8,13.9s-8.5,5.8-13.9,5.8H29.7c-5.4,0-10-1.9-13.9-5.8c-3.9-3.9-5.8-8.5-5.8-13.9V53.3c0-5.4,1.9-10,5.8-13.9c3.9-3.9,8.5-5.8,13.9-5.8h196.7c5.4,0,10,1.9,13.9,5.8C244.1,43.2,246,47.8,246,53.3z"/></g></g>
</svg>